<svg width="480" height="300" viewBox="0 0 480 300" fill="none" xmlns="http://www.w3.org/2000/svg">
  <rect width="480" height="300" rx="16" fill="#EEF2FF"/>
  <g opacity="0.9">
    <rect x="32" y="40" width="416" height="32" rx="6" fill="white" stroke="#E5E7EB"/>
    <rect x="48" y="50" width="120" height="12" rx="6" fill="#C7D2FE"/>
    <rect x="176" y="50" width="80" height="12" rx="6" fill="#E0E7FF"/>
  </g>
  <g>
    <rect x="32" y="88" width="416" height="172" rx="10" fill="white" stroke="#E5E7EB"/>
    <rect x="48" y="108" width="120" height="10" rx="5" fill="#E5E7EB"/>
    <rect x="48" y="128" width="384" height="8" rx="4" fill="#DBEAFE"/>
    <rect x="48" y="146" width="320" height="8" rx="4" fill="#C7D2FE"/>
    <rect x="48" y="164" width="360" height="8" rx="4" fill="#A5B4FC"/>
    <rect x="48" y="182" width="220" height="8" rx="4" fill="#818CF8"/>
    <rect x="48" y="200" width="180" height="8" rx="4" fill="#6366F1"/>
    <rect x="48" y="218" width="260" height="8" rx="4" fill="#4F46E5"/>
  </g>
  <circle cx="400" cy="60" r="10" fill="#6366F1"/>
  <circle cx="420" cy="60" r="10" fill="#4F46E5"/>
</svg>
